<mxfile host="drawio-plugin" modified="2021-07-16T15:02:20.383Z" agent="5.0 (Macintosh; Intel Mac OS X 11_2_2) AppleWebKit/537.36 (KHTML, like Gecko) Chrome/89.0.4389.90 Safari/537.36" etag="x6LRZE4HZI7mF8zudIfd" version="14.7.4" type="embed"><diagram id="23iRSUPoRavnBvh4doch" name="Page-1"><mxGraphModel dx="679" dy="1607" grid="1" gridSize="10" guides="1" tooltips="1" connect="1" arrows="1" fold="1" page="1" pageScale="1" pageWidth="827" pageHeight="1169" math="0" shadow="0"><root><mxCell id="0"/><mxCell id="1" parent="0"/><mxCell id="30" value="实现" style="shape=umlFrame;whiteSpace=wrap;html=1;" vertex="1" parent="1"><mxGeometry x="470" y="100" width="340" height="454" as="geometry"/></mxCell><mxCell id="2" value="Display" style="swimlane;fontStyle=1;align=center;verticalAlign=top;childLayout=stackLayout;horizontal=1;startSize=26;horizontalStack=0;resizeParent=1;resizeParentMax=0;resizeLast=0;collapsible=1;marginBottom=0;" vertex="1" parent="1"><mxGeometry x="100" y="170" width="160" height="164" as="geometry"/></mxCell><mxCell id="3" value="+ impl" style="text;strokeColor=none;fillColor=none;align=left;verticalAlign=top;spacingLeft=4;spacingRight=4;overflow=hidden;rotatable=0;points=[[0,0.5],[1,0.5]];portConstraint=eastwest;" vertex="1" parent="2"><mxGeometry y="26" width="160" height="26" as="geometry"/></mxCell><mxCell id="4" value="" style="line;strokeWidth=1;fillColor=none;align=left;verticalAlign=middle;spacingTop=-1;spacingLeft=3;spacingRight=3;rotatable=0;labelPosition=right;points=[];portConstraint=eastwest;" vertex="1" parent="2"><mxGeometry y="52" width="160" height="8" as="geometry"/></mxCell><mxCell id="5" value="+ open" style="text;strokeColor=none;fillColor=none;align=left;verticalAlign=top;spacingLeft=4;spacingRight=4;overflow=hidden;rotatable=0;points=[[0,0.5],[1,0.5]];portConstraint=eastwest;" vertex="1" parent="2"><mxGeometry y="60" width="160" height="26" as="geometry"/></mxCell><mxCell id="6" value="+ print" style="text;strokeColor=none;fillColor=none;align=left;verticalAlign=top;spacingLeft=4;spacingRight=4;overflow=hidden;rotatable=0;points=[[0,0.5],[1,0.5]];portConstraint=eastwest;" vertex="1" parent="2"><mxGeometry y="86" width="160" height="26" as="geometry"/></mxCell><mxCell id="7" value="+ close" style="text;strokeColor=none;fillColor=none;align=left;verticalAlign=top;spacingLeft=4;spacingRight=4;overflow=hidden;rotatable=0;points=[[0,0.5],[1,0.5]];portConstraint=eastwest;" vertex="1" parent="2"><mxGeometry y="112" width="160" height="26" as="geometry"/></mxCell><mxCell id="8" value="+ display" style="text;strokeColor=none;fillColor=none;align=left;verticalAlign=top;spacingLeft=4;spacingRight=4;overflow=hidden;rotatable=0;points=[[0,0.5],[1,0.5]];portConstraint=eastwest;" vertex="1" parent="2"><mxGeometry y="138" width="160" height="26" as="geometry"/></mxCell><mxCell id="9" value="DisplayImpl" style="swimlane;fontStyle=1;align=center;verticalAlign=top;childLayout=stackLayout;horizontal=1;startSize=26;horizontalStack=0;resizeParent=1;resizeParentMax=0;resizeLast=0;collapsible=1;marginBottom=0;" vertex="1" parent="1"><mxGeometry x="574" y="160" width="160" height="112" as="geometry"/></mxCell><mxCell id="11" value="" style="line;strokeWidth=1;fillColor=none;align=left;verticalAlign=middle;spacingTop=-1;spacingLeft=3;spacingRight=3;rotatable=0;labelPosition=right;points=[];portConstraint=eastwest;" vertex="1" parent="9"><mxGeometry y="26" width="160" height="8" as="geometry"/></mxCell><mxCell id="12" value="+ rawOpen" style="text;strokeColor=none;fillColor=none;align=left;verticalAlign=top;spacingLeft=4;spacingRight=4;overflow=hidden;rotatable=0;points=[[0,0.5],[1,0.5]];portConstraint=eastwest;" vertex="1" parent="9"><mxGeometry y="34" width="160" height="26" as="geometry"/></mxCell><mxCell id="13" value="+ rawPrint" style="text;strokeColor=none;fillColor=none;align=left;verticalAlign=top;spacingLeft=4;spacingRight=4;overflow=hidden;rotatable=0;points=[[0,0.5],[1,0.5]];portConstraint=eastwest;" vertex="1" parent="9"><mxGeometry y="60" width="160" height="26" as="geometry"/></mxCell><mxCell id="14" value="+ rawClose" style="text;strokeColor=none;fillColor=none;align=left;verticalAlign=top;spacingLeft=4;spacingRight=4;overflow=hidden;rotatable=0;points=[[0,0.5],[1,0.5]];portConstraint=eastwest;" vertex="1" parent="9"><mxGeometry y="86" width="160" height="26" as="geometry"/></mxCell><mxCell id="15" value="CountDisplay" style="swimlane;fontStyle=1;align=center;verticalAlign=top;childLayout=stackLayout;horizontal=1;startSize=26;horizontalStack=0;resizeParent=1;resizeParentMax=0;resizeLast=0;collapsible=1;marginBottom=0;" vertex="1" parent="1"><mxGeometry x="100" y="440" width="160" height="60" as="geometry"/></mxCell><mxCell id="17" value="" style="line;strokeWidth=1;fillColor=none;align=left;verticalAlign=middle;spacingTop=-1;spacingLeft=3;spacingRight=3;rotatable=0;labelPosition=right;points=[];portConstraint=eastwest;" vertex="1" parent="15"><mxGeometry y="26" width="160" height="8" as="geometry"/></mxCell><mxCell id="18" value="+ multiDisplay" style="text;strokeColor=none;fillColor=none;align=left;verticalAlign=top;spacingLeft=4;spacingRight=4;overflow=hidden;rotatable=0;points=[[0,0.5],[1,0.5]];portConstraint=eastwest;" vertex="1" parent="15"><mxGeometry y="34" width="160" height="26" as="geometry"/></mxCell><mxCell id="19" value="StringDisplayImpl" style="swimlane;fontStyle=1;align=center;verticalAlign=top;childLayout=stackLayout;horizontal=1;startSize=26;horizontalStack=0;resizeParent=1;resizeParentMax=0;resizeLast=0;collapsible=1;marginBottom=0;" vertex="1" parent="1"><mxGeometry x="574" y="380" width="160" height="138" as="geometry"/></mxCell><mxCell id="20" value=" " style="text;strokeColor=none;fillColor=none;align=left;verticalAlign=top;spacingLeft=4;spacingRight=4;overflow=hidden;rotatable=0;points=[[0,0.5],[1,0.5]];portConstraint=eastwest;" vertex="1" parent="19"><mxGeometry y="26" width="160" height="26" as="geometry"/></mxCell><mxCell id="21" value="" style="line;strokeWidth=1;fillColor=none;align=left;verticalAlign=middle;spacingTop=-1;spacingLeft=3;spacingRight=3;rotatable=0;labelPosition=right;points=[];portConstraint=eastwest;" vertex="1" parent="19"><mxGeometry y="52" width="160" height="8" as="geometry"/></mxCell><mxCell id="22" value="+ rawOpen" style="text;strokeColor=none;fillColor=none;align=left;verticalAlign=top;spacingLeft=4;spacingRight=4;overflow=hidden;rotatable=0;points=[[0,0.5],[1,0.5]];portConstraint=eastwest;" vertex="1" parent="19"><mxGeometry y="60" width="160" height="26" as="geometry"/></mxCell><mxCell id="23" value="+ rawPrint" style="text;strokeColor=none;fillColor=none;align=left;verticalAlign=top;spacingLeft=4;spacingRight=4;overflow=hidden;rotatable=0;points=[[0,0.5],[1,0.5]];portConstraint=eastwest;" vertex="1" parent="19"><mxGeometry y="86" width="160" height="26" as="geometry"/></mxCell><mxCell id="24" value="+ rawClose" style="text;strokeColor=none;fillColor=none;align=left;verticalAlign=top;spacingLeft=4;spacingRight=4;overflow=hidden;rotatable=0;points=[[0,0.5],[1,0.5]];portConstraint=eastwest;" vertex="1" parent="19"><mxGeometry y="112" width="160" height="26" as="geometry"/></mxCell><mxCell id="25" value="Extends" style="endArrow=block;endSize=16;endFill=0;html=1;exitX=0.5;exitY=0;exitDx=0;exitDy=0;entryX=0.488;entryY=1.038;entryDx=0;entryDy=0;entryPerimeter=0;" edge="1" parent="1" source="19" target="14"><mxGeometry width="160" relative="1" as="geometry"><mxPoint x="450" y="370" as="sourcePoint"/><mxPoint x="610" y="370" as="targetPoint"/></mxGeometry></mxCell><mxCell id="26" value="Extends" style="endArrow=block;endSize=16;endFill=0;html=1;exitX=0.5;exitY=0;exitDx=0;exitDy=0;" edge="1" parent="1" source="15" target="8"><mxGeometry width="160" relative="1" as="geometry"><mxPoint x="280" y="360" as="sourcePoint"/><mxPoint x="440" y="360" as="targetPoint"/></mxGeometry></mxCell><mxCell id="27" value="" style="endArrow=diamondThin;endFill=0;endSize=24;html=1;entryX=0.994;entryY=0.269;entryDx=0;entryDy=0;entryPerimeter=0;exitX=0;exitY=0.5;exitDx=0;exitDy=0;" edge="1" parent="1" source="12" target="3"><mxGeometry width="160" relative="1" as="geometry"><mxPoint x="280" y="380" as="sourcePoint"/><mxPoint x="440" y="380" as="targetPoint"/></mxGeometry></mxCell><mxCell id="31" value="委托" style="edgeLabel;html=1;align=center;verticalAlign=middle;resizable=0;points=[];" vertex="1" connectable="0" parent="27"><mxGeometry x="0.0036" y="-4" relative="1" as="geometry"><mxPoint as="offset"/></mxGeometry></mxCell><mxCell id="28" value="&lt;h1&gt;桥接模式&lt;/h1&gt;&lt;p&gt;Bridge模式的作用也是将这两样东西连接起来，它们分别是累的功能层次结构和类的实现层次结构.&lt;/p&gt;" style="text;html=1;strokeColor=none;fillColor=none;spacing=5;spacingTop=-20;whiteSpace=wrap;overflow=hidden;rounded=0;" vertex="1" parent="1"><mxGeometry x="160" width="390" height="120" as="geometry"/></mxCell><mxCell id="29" value="抽象" style="shape=umlFrame;whiteSpace=wrap;html=1;" vertex="1" parent="1"><mxGeometry x="40" y="110" width="340" height="454" as="geometry"/></mxCell></root></mxGraphModel></diagram></mxfile>